#!OML:ASF F:\VICON\USERDATA\INSTALL\rory3\rory3.ASF
:FULLY-SPECIFIED
:DEGREES
124
root -0.8243091095393769 17.511676399608636 24.283969205005363 2.881595658931093 -1.6025413382495635 -0.2870272481148285
lfemur -16.16603089798083 3.3715502567367905 -21.46313801754461
ltibia 73.08107603176535
lfoot -0.19548142982120398 -11.199507038682746
ltoes -16.687952662430824
rfemur -21.09734374291579 3.5355090489695256 26.783522663422882
rtibia 93.26983626968682
rfoot 1.4146122839608255 -10.262011345457417
rtoes -6.074215345227732
lowerback 15.203264776509247 2.1577722084155315 1.1531791852184843
upperback -0.3929848053403958 3.230854313074456 0.024945845443798298
thorax -8.720201723535299 1.494563864045035 -1.6682533269785316
lowerneck -18.885059188159104 -5.4439199919189525 -1.5246465879021505
upperneck 12.696956624215503 -7.835374046859407 3.942955572466442
head 7.327367335927391 -3.350985799132223 0.7373501038446222
lclavicle -2.0490533146564497e-17 4.25809920042619e-16
lhumerus -46.97519629730173 -9.887915191627423 93.03027294245415
lradius 90.82312600709331
lwrist 34.26643970742867
lhand -26.863461821387034 4.839128819411088
lfingers 7.125019999999998
lthumb -0.4343275424640427 33.33519355605828
rclavicle -2.0490533385785814e-17 4.258099198846897e-16
rhumerus -44.53099267599232 11.591267655967975 -93.29461682240115
rradius 100.0833165394573
rwrist -19.297092623524463
rhand -20.086617332394177 41.78376131529464
rfingers 7.125019999999998
rthumb 5.72531331780036 11.739634506366922
125
root -0.8427594634941981 17.4530147450708 24.446109661124815 2.792163875110239 -1.6094599937656624 -0.300075032670442
lfemur -16.774226736036145 3.700814250846337 -21.221731329183353
ltibia 74.66342841050462
lfoot -0.3724063795233592 -11.305414481084291
ltoes -15.466726059655295
rfemur -20.43871240135849 3.8119981784291412 26.92993657066432
rtibia 93.1594411092456
rfoot 1.210189431025782 -10.537712610609052
rtoes -5.125977747281257
lowerback 15.339212899526796 2.1767561386189804 1.0772437096409404
upperback -0.35823168295583424 3.2341033488235382 -0.01172634826208041
thorax -8.842902887748773 1.4910126113332622 -1.6387855298146496
lowerneck -18.892265923302723 -5.446551588984408 -1.5061729684235732
upperneck 12.517134139563302 -7.835450580389849 3.9955361040826616
head 7.242629965206861 -3.3493033497306612 0.751394160175852
lclavicle -2.0490533145277864e-17 4.258099200435642e-16
lhumerus -46.81868394344647 -9.871500832438025 92.92672005077405
lradius 91.38755944511634
lwrist 34.23062182633661
lhand -27.141245638188387 5.000938479274883
lfingers 7.125019999999998
lthumb -0.48370059073663607 33.654907049558204
rclavicle -2.049053338793835e-17 4.2580991988343044e-16
rhumerus -44.29176121115551 11.625095243041185 -93.42061426143906
rradius 100.05684641742126
rwrist -18.828874662634206
rhand -20.105310179397343 41.256167148935546
rfingers 7.125019999999998
rthumb 5.673835603213462 11.221706780504743
126
root -0.8614760535825718 17.390686214774217 24.615274349556515 2.7092860790511537 -1.6564304075348493 -0.32961521456694676
lfemur -17.41062779595014 4.120591505337034 -20.942924451762806
ltibia 76.2211686523745
lfoot -0.36187619229979173 -11.14339262340594
ltoes -13.445407426562102
rfemur -19.75532184475226 4.148587003630505 27.086511053172725
rtibia 93.16136529887126
rfoot 1.329290572572491 -10.813624720434731
rtoes -3.777627230301979
lowerback 15.475048379287646 2.2018891976405324 1.0115208812827756
upperback -0.3085696949322402 3.2464162170400166 -0.045001667190708416
thorax -8.953760753436669 1.4936845409830997 -1.6115983505501326
lowerneck -18.952501021376904 -5.431960694045547 -1.4914451354514933
upperneck 12.394730638915739 -7.812868961549737 4.043484433098006
head 7.190128213452055 -3.3382531858881155 0.7616764184865925
lclavicle -2.0490533143576954e-17 4.2580992004469807e-16
lhumerus -46.5498648697525 -9.865568936074617 92.83859555986201
lradius 91.91914870514393
lwrist 34.19597333073298
lhand -27.443845708792093 5.129312923913233
lfingers 7.125019999999998
lthumb -0.6358179738671816 33.86002164247841
rclavicle -2.0490533387551584e-17 4.2580991988372696e-16
rhumerus -44.04360432203432 11.663671616418048 -93.55323018794854
rradius 100.0431719392448
rwrist -18.653944126558667
rhand -20.095624317461272 40.80202935655975
rfingers 7.125019999999998
rthumb 5.7278494197055245 10.886852596891577
127
root -0.8687859514521137 17.332024423353786 24.847804799040542 2.6506359370027512 -1.7318087409961422 -0.35107187117304317
lfemur -18.056380383632693 4.60848103933081 -20.665910734731384
ltibia 77.75933219957929
lfoot -0.20928242268387898 -10.792446325321755
ltoes -11.83870684053213
rfemur -19.02603030571491 4.458954849776336 27.23388069551154
rtibia 93.24361742956707
rfoot 1.6298409078969707 -10.96925853467472
rtoes -2.199954042245344
lowerback 15.560694587807289 2.2255664283815517 0.9649536979150083
upperback -0.24976637243227304 3.2572957909435116 -0.10049700050564236
thorax -9.021777392498215 1.5038736687347456 -1.5925964416601792
lowerneck -19.06050670824835 -5.408796543936242 -1.4837328794171674
upperneck 12.323005969988095 -7.780489168987621 4.096127705288324
head 7.168435192565621 -3.320319120335884 0.7718234897233797
lclavicle -2.0490533141399057e-17 4.2580992004609233e-16
lhumerus -46.29255407113777 -9.864104708834002 92.81301708506382
lradius 92.51318168056643
lwrist 34.30763842664071
lhand -27.864178107033386 5.0263308720544915
lfingers 7.125019999999998
lthumb -0.6994494703487062 34.449041233555405
rclavicle -2.0490533386435814e-17 4.2580991988443185e-16
rhumerus -43.7949274687251 11.707940413810375 -93.69032844107791
rradius 100.05463724394555
rwrist -18.329417548407264
rhand -20.10691193925738 40.31979051048852
rfingers 7.125019999999998
rthumb 5.7712797695098565 10.57990375151848
